<svg xmlns="http://www.w3.org/2000/svg" viewBox="0 0 359.6 72" width="360" height="72"><g transform="translate(2 4.0) scale(0.5333)"><path d="M30 100 L30 58 A30 30 0 0 1 90 58 L90 100" fill="none" stroke="#C42BA6" stroke-width="10" stroke-linecap="round" stroke-linejoin="round"/><circle cx="60" cy="67" r="15" fill="#E24FCB"/></g><path d="M749.332275390625 -30Q533.4989624023438 -30 379.1658935546875 64.3333740234375Q224.83282470703125 158.666748046875 142.41641235351562 327.666748046875Q60 496.666748046875 60 720Q60 943.333251953125 142.41641235351562 1112.333251953125Q224.83282470703125 1281.333251953125 379.1658935546875 1375.6666259765625Q533.4989624023438 1470 749.332275390625 1470Q997.9990234375 1470 1164.0820617675781 1345.5831604003906Q1330.1651000976562 1221.1663208007812 1396.664794921875 1009.6661376953125L1153.6685791015625 943.0006103515625Q1112.3350830078125 1084.0018310546875 1011.2510070800781 1163.3359985351562Q910.1669311523438 1242.670166015625 749.332275390625 1242.670166015625Q604.331298828125 1242.670166015625 507.66400146484375 1177.669677734375Q410.9967041015625 1112.669189453125 362.3297119140625 995.0850524902344Q313.6627197265625 877.5009155273438 313.329345703125 720Q312.9959716796875 562.4990844726562 361.6629638671875 444.998291015625Q410.3299560546875 327.49749755859375 507.33062744140625 262.4136657714844Q604.331298828125 197.329833984375 749.332275390625 197.329833984375Q910.1669311523438 197.329833984375 1011.2510070800781 277.16400146484375Q1112.3350830078125 356.9981689453125 1153.6685791015625 496.9993896484375L1396.664794921875 430.3338623046875Q1330.1651000976562 218.83367919921875 1164.0820617675781 94.41683959960938Q997.9990234375 -30 749.332275390625 -30Z" fill="#1A1320" transform="translate(78.00 47.00) scale(0.01900 -0.01900)"/><path d="M442.3336181640625 -30Q324.666748046875 -30 243.75003051757812 14.416656494140625Q162.83331298828125 58.83331298828125 121.41665649414062 132.91659545898438Q80 206.9998779296875 80 295.999755859375Q80 374.33349609375 106.08370971679688 436.4168395996094Q132.16741943359375 498.50018310546875 186.25106811523438 544.0832824707031Q240.334716796875 589.6663818359375 325.6678466796875 618.9993896484375Q391.335205078125 640.4993286132812 478.4190368652344 657.0826110839844Q565.5028686523438 673.6658935546875 668.1692504882812 688.2491149902344Q770.8356323242188 702.8323364257812 883.333984375 719.6654052734375L796.668701171875 671.332763671875Q797.5021362304688 783.1680297851562 746.7515563964844 836.2523498535156Q696.0009765625 889.336669921875 574.666015625 889.336669921875Q501.997802734375 889.336669921875 434.0807800292969 855.0860290527344Q366.16375732421875 820.8353881835938 338.9969482421875 738.3343505859375L118.666748046875 807.333251953125Q158.83331298828125 944.000244140625 271.5832824707031 1027.0001220703125Q384.333251953125 1110 575.332763671875 1110Q719.4995727539062 1110 828.666015625 1063.1663208007812Q937.8324584960938 1016.3326416015625 991.33203125 908.9993896484375Q1020.3316650390625 852.3331298828125 1026.3316650390625 792.8331909179688Q1032.3316650390625 733.333251953125 1032.3316650390625 662.6669921875V0H821.0015869140625V234.3348388671875L856.001708984375 195.6690673828125Q783.00244140625 79.16815185546875 685.4183654785156 24.584075927734375Q587.8342895507812 -30 442.3336181640625 -30ZM489.9990234375 162.3306884765625Q571.9998779296875 162.3306884765625 629.833984375 191.41433715820312Q687.6680908203125 220.49798583984375 722.3352661132812 262.0822448730469Q757.00244140625 303.66650390625 768.669189453125 341.3349609375Q787.5022583007812 387.335205078125 790.4188537597656 446.7519836425781Q793.33544921875 506.16876220703125 793.33544921875 543.335205078125L867.334716796875 521.0015869140625Q757.66943359375 503.50189208984375 679.5857238769531 490.8353271484375Q601.5020141601562 478.16876220703125 545.8341674804688 466.7520446777344Q490.16632080078125 455.3353271484375 446.9986572265625 441.0018310546875Q405.49847412109375 425.6685791015625 376.4145812988281 405.9184265136719Q347.3306884765625 386.16827392578125 331.8302001953125 360.0010986328125Q316.3297119140625 333.83392333984375 316.3297119140625 298.9996337890625Q316.3297119140625 259.49932861328125 336.0798645019531 228.58212280273438Q355.83001708984375 197.6649169921875 394.4139099121094 179.997802734375Q432.997802734375 162.3306884765625 489.9990234375 162.3306884765625Z" fill="#1A1320" transform="translate(105.66 47.00) scale(0.01900 -0.01900)"/><path d="M573.332763671875 -30Q423.666015625 -30 312.9161682128906 45.083343505859375Q202.16632080078125 120.16668701171875 141.08316040039062 249.25003051757812Q80 378.3333740234375 80 540.3333740234375Q80 704.333251953125 141.74978637695312 832.9165954589844Q203.49957275390625 961.4999389648438 316.2492980957031 1035.7499694824219Q428.9990234375 1110 582.3321533203125 1110Q735.8320922851562 1110 840.5820617675781 1035.2500305175781Q945.33203125 960.5000610351562 999.1653442382812 831.5834045410156Q1052.9986572265625 702.666748046875 1052.9986572265625 540.3333740234375Q1052.9986572265625 378.50006103515625 998.83203125 249.41671752929688Q944.6654052734375 120.3333740234375 837.9989013671875 45.16668701171875Q731.3323974609375 -30 573.332763671875 -30ZM609.99853515625 185.6634521484375Q706.999267578125 185.6634521484375 766.6665649414062 230.49725341796875Q826.3338623046875 275.3310546875 853.5009155273438 355.4151306152344Q880.66796875 435.49920654296875 880.66796875 540.3333740234375Q880.66796875 645.5009155273438 853.4175720214844 725.4183044433594Q826.1671752929688 805.335693359375 768.16650390625 849.8361206054688Q710.1658325195312 894.3365478515625 618.3316650390625 894.3365478515625Q520.99755859375 894.3365478515625 458.1636962890625 846.6694946289062Q395.329833984375 799.00244140625 365.16290283203125 718.6683959960938Q334.9959716796875 638.3343505859375 334.9959716796875 540.3333740234375Q334.9959716796875 441.3323974609375 364.6629638671875 360.8316650390625Q394.3299560546875 280.3309326171875 455.0805358886719 232.9971923828125Q515.8311157226562 185.6634521484375 609.99853515625 185.6634521484375ZM880.66796875 0V758.3355712890625H851.335205078125V1440H1093.6646728515625V0Z" fill="#1A1320" transform="translate(127.15 47.00) scale(0.01900 -0.01900)"/><path d="M630.665283203125 -30Q466.83221435546875 -30 342.99920654296875 41.083282470703125Q219.16619873046875 112.16656494140625 149.58309936523438 238.08328247070312Q80 364 80 528.3336181640625Q80 705.3336181640625 148.24978637695312 835.8335571289062Q216.49957275390625 966.33349609375 337.4159851074219 1038.166748046875Q458.3323974609375 1110 617.332275390625 1110Q784.8319702148438 1110 902.331787109375 1031.6668701171875Q1019.8316040039062 953.333740234375 1077.0816345214844 810.333984375Q1134.3316650390625 667.334228515625 1120.1653442382812 472.667724609375H881.0023193359375V560.666259765625Q880.002197265625 737.0009765625 819.0011596679688 818.168701171875Q758.0001220703125 899.33642578125 627.33203125 899.33642578125Q479.49761962890625 899.33642578125 407.2467956542969 807.6688842773438Q334.9959716796875 716.0013427734375 334.9959716796875 540Q334.9959716796875 375.6650390625 407.2467956542969 285.66412353515625Q479.49761962890625 195.6632080078125 617.332275390625 195.6632080078125Q706.3333740234375 195.6632080078125 770.6676025390625 235.3304443359375Q835.0018310546875 274.9976806640625 870.00244140625 349.6654052734375L1108.3316650390625 277.99951171875Q1046.4982299804688 131.6663818359375 916.7484436035156 50.83319091796875Q786.9986572265625 -30 630.665283203125 -30ZM258.9969482421875 472.667724609375V654.9986572265625H1002.3336181640625V472.667724609375Z" fill="#1A1320" transform="translate(150.20 47.00) scale(0.01900 -0.01900)"/><path d="M887.0013427734375 0V520.3345947265625Q887.0013427734375 570.5028686523438 879.7509460449219 632.50341796875Q872.5005493164062 694.5039672851562 847.3333740234375 752.0872497558594Q822.1661987304688 809.6705322265625 771.6658325195312 846.6702880859375Q721.1654663085938 883.6700439453125 634.66552734375 883.6700439453125Q588.99755859375 883.6700439453125 544.0802917480469 868.7528991699219Q499.16302490234375 853.8357543945312 462.82952880859375 817.5851745605469Q426.49603271484375 781.3345947265625 404.4127502441406 717.5009155273438Q382.3294677734375 653.667236328125 382.3294677734375 555.0008544921875L239.3310546875 616.3326416015625Q239.3310546875 753.8338012695312 292.83123779296875 866.0838317871094Q346.3314208984375 978.3338623046875 450.1646728515625 1044.5001831054688Q553.9979248046875 1110.66650390625 706.3304443359375 1110.66650390625Q825.8295288085938 1110.66650390625 903.9126281738281 1071.000244140625Q981.9957275390625 1031.333984375 1027.9959106445312 969.0844421386719Q1073.99609375 906.8348999023438 1095.9964599609375 836.7517395019531Q1117.996826171875 766.6685791015625 1124.4971313476562 704.0848083496094Q1130.9974365234375 641.5010375976562 1130.9974365234375 602.9996337890625V0ZM138.3333740234375 0V1080H352.9967041015625V745.0028076171875H382.3294677734375V0Z" fill="#1A1320" transform="translate(172.67 47.00) scale(0.01900 -0.01900)"/><path d="M608.9991455078125 -30Q442.16595458984375 -30 323.99951171875 44.49993896484375Q205.83306884765625 118.9998779296875 143.16656494140625 247.91653442382812Q80.50006103515625 376.83319091796875 80 540Q80.50006103515625 705.5001831054688 145.33319091796875 834.33349609375Q210.16632080078125 963.1668090820312 329.16607666015625 1036.5834045410156Q448.16583251953125 1110 612.3323974609375 1110Q796.4982299804688 1110 923.9979858398438 1017.6671752929688Q1051.4977416992188 925.3343505859375 1089.6646728515625 765.335205078125L849.6685791015625 699.6693115234375Q822.1681518554688 787.0030517578125 757.0007934570312 835.669921875Q691.8334350585938 884.3367919921875 608.9991455078125 884.3367919921875Q514.664794921875 884.3367919921875 453.9974365234375 839.5030517578125Q393.330078125 794.6693115234375 364.3297119140625 716.835205078125Q335.329345703125 639.0010986328125 334.9959716796875 540Q335.49603271484375 385.83172607421875 404.4134826660156 290.7474670410156Q473.3309326171875 195.6632080078125 608.9991455078125 195.6632080078125Q705.4996948242188 195.6632080078125 760.8339233398438 239.83013916015625Q816.1681518554688 283.9970703125 844.3353271484375 366.664306640625L1089.6646728515625 312.3314208984375Q1040.1642456054688 147.332275390625 915.1646118164062 58.6661376953125Q790.1649780273438 -30 608.9991455078125 -30Z" fill="#1A1320" transform="translate(196.04 47.00) scale(0.01900 -0.01900)"/><path d="M630.665283203125 -30Q466.83221435546875 -30 342.99920654296875 41.083282470703125Q219.16619873046875 112.16656494140625 149.58309936523438 238.08328247070312Q80 364 80 528.3336181640625Q80 705.3336181640625 148.24978637695312 835.8335571289062Q216.49957275390625 966.33349609375 337.4159851074219 1038.166748046875Q458.3323974609375 1110 617.332275390625 1110Q784.8319702148438 1110 902.331787109375 1031.6668701171875Q1019.8316040039062 953.333740234375 1077.0816345214844 810.333984375Q1134.3316650390625 667.334228515625 1120.1653442382812 472.667724609375H881.0023193359375V560.666259765625Q880.002197265625 737.0009765625 819.0011596679688 818.168701171875Q758.0001220703125 899.33642578125 627.33203125 899.33642578125Q479.49761962890625 899.33642578125 407.2467956542969 807.6688842773438Q334.9959716796875 716.0013427734375 334.9959716796875 540Q334.9959716796875 375.6650390625 407.2467956542969 285.66412353515625Q479.49761962890625 195.6632080078125 617.332275390625 195.6632080078125Q706.3333740234375 195.6632080078125 770.6676025390625 235.3304443359375Q835.0018310546875 274.9976806640625 870.00244140625 349.6654052734375L1108.3316650390625 277.99951171875Q1046.4982299804688 131.6663818359375 916.7484436035156 50.83319091796875Q786.9986572265625 -30 630.665283203125 -30ZM258.9969482421875 472.667724609375V654.9986572265625H1002.3336181640625V472.667724609375Z" fill="#1A1320" transform="translate(217.51 47.00) scale(0.01900 -0.01900)"/><path d="M560.3343505859375 -510Q480.000732421875 -510 400.333984375 -486.7498474121094Q320.667236328125 -463.49969482421875 251.833984375 -410.99969482421875Q183.000732421875 -358.49969482421875 135.334228515625 -271.0001220703125L239.0045166015625 -208.9986572265625Q288.3372802734375 -309.49737548828125 378.0862731933594 -352.4136047363281Q467.83526611328125 -395.329833984375 560.667724609375 -395.329833984375Q691.666015625 -395.329833984375 768.5821228027344 -346.4971923828125Q845.4982299804688 -297.66455078125 878.4148864746094 -201.33258056640625Q911.33154296875 -105.0006103515625 910.9981689453125 38.3306884765625V320.664794921875H923.33203125V1080H1028.001953125V37.6639404296875Q1028.001953125 -9.83587646484375 1025.7519226074219 -54.085662841796875Q1023.5018920898438 -98.33544921875 1017.0018310546875 -141.6685791015625Q999.3349609375 -267.3345947265625 943.0012817382812 -348.83416748046875Q886.6676025390625 -430.333740234375 791.3341064453125 -470.1668701171875Q696.0006103515625 -510 560.3343505859375 -510ZM554.667236328125 -30Q402.333984375 -30 296.5838317871094 45.416656494140625Q190.83367919921875 120.83331298828125 135.41683959960938 250.24996948242188Q80 379.6666259765625 80 541.6666259765625Q80 701.666748046875 134.75021362304688 830.5834045410156Q189.50042724609375 959.5000610351562 293.2507019042969 1034.7500305175781Q397.0009765625 1110 543.6678466796875 1110Q695.1679077148438 1110 798.9179382324219 1036.2499694824219Q902.66796875 962.4999389648438 955.8346557617188 833.9165954589844Q1009.0013427734375 705.333251953125 1009.0013427734375 541.6666259765625Q1009.0013427734375 380.49993896484375 956.16796875 251.08328247070312Q903.3345947265625 121.6666259765625 802.0010986328125 45.83331298828125Q700.6676025390625 -30 554.667236328125 -30ZM562.00146484375 80.3365478515625Q683.000732421875 80.3365478515625 763.3334350585938 140.50274658203125Q843.6661376953125 200.6689453125 883.4990844726562 305.0848693847656Q923.33203125 409.50079345703125 923.33203125 541.6666259765625Q923.33203125 675.4990844726562 883.0824279785156 779.0816955566406Q842.8328247070312 882.664306640625 762.83349609375 941.1638793945312Q682.8341674804688 999.6634521484375 563.6683349609375 999.6634521484375Q441.00244140625 999.6634521484375 360.8363037109375 939.3305053710938Q280.670166015625 878.99755859375 241.83709716796875 775.3316040039062Q203.0040283203125 671.6656494140625 203.0040283203125 541.6666259765625Q203.0040283203125 410.6676025390625 243.3370361328125 306.1683349609375Q283.6700439453125 201.6690673828125 363.4194641113281 141.0028076171875Q443.16888427734375 80.3365478515625 562.00146484375 80.3365478515625Z" fill="#9A55C4" transform="translate(239.99 47.00) scale(0.01900 -0.01900)"/><path d="M451.6663818359375 -30Q327.333251953125 -30 244.74996948242188 14.083343505859375Q162.16668701171875 58.16668701171875 121.08334350585938 130.58340454101562Q80 203.0001220703125 80 288.000244140625Q80 379.66650390625 118.41629028320312 442.0831604003906Q156.83258056640625 504.49981689453125 221.24893188476562 542.4167175292969Q285.665283203125 580.3336181640625 364.3321533203125 599.0006103515625Q452.664794921875 618.5006713867188 556.0809631347656 633.4173889160156Q659.4971313476562 648.3341064453125 752.8307495117188 659.2508850097656Q846.1643676757812 670.1676635742188 904.666015625 678.3345947265625L863.331298828125 652.667236328125Q867.4978637695312 827.8319702148438 797.7484436035156 913.2476501464844Q727.9990234375 998.663330078125 553.333984375 998.663330078125Q430.002197265625 998.663330078125 350.4192199707031 943.4139709472656Q270.83624267578125 888.1646118164062 239.0030517578125 771.6656494140625L121.333251953125 804.666748046875Q158.16668701171875 951.999755859375 269.9167175292969 1030.9998779296875Q381.666748046875 1110 556.667236328125 1110Q705.5004272460938 1110 807.333984375 1051.8336791992188Q909.1675415039062 993.6673583984375 948.66796875 889.0006103515625Q965.6683349609375 845.6668701171875 971.6683349609375 788.1668090820312Q977.6683349609375 730.666748046875 977.6683349609375 673.3330078125V0H872.9984130859375V283.6651611328125L911.998291015625 274.3309326171875Q862.99755859375 127.83184814453125 741.0816345214844 48.915924072265625Q619.1657104492188 -30 451.6663818359375 -30ZM458.0009765625 75.6693115234375Q568.0001220703125 75.6693115234375 651.166015625 115.08566284179688Q734.3319091796875 154.50201416015625 785.6647338867188 226.41775512695312Q836.99755859375 298.33349609375 851.330810546875 394.6650390625Q861.4977416992188 448.664794921875 862.0811462402344 511.7480163574219Q862.66455078125 574.8312377929688 862.66455078125 604.664794921875L912.665283203125 572.9984130859375Q848.33056640625 565.4981079101562 757.9142761230469 556.1646728515625Q667.4979858398438 546.8312377929688 573.1658325195312 533.7479553222656Q478.83367919921875 520.6646728515625 403.0013427734375 500.9981689453125Q355.50152587890625 488.3314208984375 308.0854187011719 463.5815734863281Q260.6693115234375 438.83172607421875 229.1697998046875 395.9989013671875Q197.6702880859375 353.16607666015625 197.6702880859375 287.0003662109375Q197.6702880859375 237.50067138671875 222.42013549804688 188.91787719726562Q247.16998291015625 140.3350830078125 304.0860900878906 108.002197265625Q361.002197265625 75.6693115234375 458.0009765625 75.6693115234375Z" fill="#9A55C4" transform="translate(261.78 47.00) scale(0.01900 -0.01900)"/><path d="M160 0V1470H275.337158203125V0Z" fill="#9A55C4" transform="translate(282.24 47.00) scale(0.01900 -0.01900)"/><path d="M160 0V1470H275.337158203125V0Z" fill="#9A55C4" transform="translate(290.11 47.00) scale(0.01900 -0.01900)"/><path d="M585.334716796875 -30Q430.16778564453125 -30 317.00079345703125 39.416717529296875Q203.83380126953125 108.83343505859375 141.91690063476562 236.41671752929688Q80 364 80 537.6663818359375Q80 714.6663818359375 141.25021362304688 843.1664428710938Q202.50042724609375 971.66650390625 315.0840148925781 1040.833251953125Q427.6676025390625 1110 582.667724609375 1110Q740.1680297851562 1110 851.668212890625 1038.3331298828125Q963.1683959960938 966.666259765625 1021.4183654785156 831.666015625Q1079.6683349609375 696.665771484375 1076.8346557617188 507.332275390625H956.9976806640625V547.333740234375Q951.997802734375 768.9990234375 856.9988403320312 884.831298828125Q761.9998779296875 1000.66357421875 584.66796875 1000.66357421875Q401.50238037109375 1000.66357421875 302.2532043457031 880.3311157226562Q203.0040283203125 759.9986572265625 203.0040283203125 540Q203.0040283203125 322.3349609375 302.2532043457031 202.33587646484375Q401.50238037109375 82.3367919921875 582.667724609375 82.3367919921875Q707.6666259765625 82.3367919921875 801.3323974609375 140.6695556640625Q894.9981689453125 199.0023193359375 949.99755859375 308.3345947265625L1053.6683349609375 262.00048828125Q988.5017700195312 122.3336181640625 865.7515563964844 46.16680908203125Q743.0013427734375 -30 585.334716796875 -30ZM159.0030517578125 507.332275390625V611.0013427734375H1011.6663818359375V507.332275390625Z" fill="#9A55C4" transform="translate(297.97 47.00) scale(0.01900 -0.01900)"/><path d="M140 0V1080H245.0032958984375V820.9998779296875L219.0032958984375 854.9998779296875Q236.6700439453125 901.0001220703125 264.17022705078125 940.3336181640625Q291.67041015625 979.6671142578125 321.0042724609375 1004.667236328125Q364.17083740234375 1044.5001831054688 422.2538757324219 1065.5Q480.3369140625 1086.4998168945312 539.336669921875 1089.9998168945312Q598.33642578125 1093.4998168945312 645.6697998046875 1080V970.9964599609375Q582.3369140625 985.8297729492188 509.9205627441406 977.1632080078125Q437.50421142578125 968.4966430664062 375.337890625 914.6640625Q319.83807373046875 866.8313598632812 294.7545471191406 803.2486877441406Q269.6710205078125 739.666015625 262.6707763671875 670.16650390625Q255.6705322265625 600.6669921875 255.6705322265625 535.333740234375V0Z" fill="#9A55C4" transform="translate(319.57 47.00) scale(0.01900 -0.01900)"/><path d="M297.99951171875 -480 507.6661376953125 85.33349609375 509.99951171875 -82.66650390625 36.666259765625 1080H160.3367919921875L566.3345947265625 70.3380126953125H502.3345947265625L871.333251953125 1080H991.6702880859375L418.3360595703125 -480Z" fill="#9A55C4" transform="translate(332.40 47.00) scale(0.01900 -0.01900)"/></svg>